<svg xmlns="http://www.w3.org/2000/svg" xmlns:xlink="http://www.w3.org/1999/xlink" viewBox="0 0 300 70"><defs><path id="a" d="M0 .715h9.418v55.36H0z"/></defs><g fill="none" fill-rule="evenodd"><path fill="#58585B" d="M39.283 17.067l13.239 31.945 13.152-31.945h4.62L54.123 55.5H50.48L34.307 17.067z"/><g transform="translate(0 .135)"><mask id="b" fill="#fff"><use xlink:href="#a"/></mask><path d="M5.776 56.074C2.31 56.074 0 54.21 0 49.322V1.604L4.709.715v48.696c0 2.22.8 3.2 2.4 3.2.976 0 1.688-.268 2.309-.624v2.845c-.799.71-2.043 1.242-3.642 1.242" fill="#58585B" mask="url(#b)"/></g><path d="M114.031 20.133c-9.152 0-15.728 6.754-15.728 16.173 0 9.42 6.576 16.172 15.728 16.172 9.151 0 15.728-6.753 15.728-16.172 0-9.42-6.577-16.173-15.728-16.173m0-4.265c11.73 0 20.437 9.241 20.437 20.438s-8.707 20.439-20.437 20.439-20.437-9.242-20.437-20.439 8.706-20.438 20.437-20.438M22.345 7.1c1.434 0 2.65 1.147 2.65 2.578 0 1.434-1.216 2.58-2.65 2.58a2.567 2.567 0 01-2.578-2.58A2.567 2.567 0 0122.345 7.1m2.405 9.224v39.175h-4.739V17.218zM82.185 7.1c1.432 0 2.65 1.147 2.65 2.578 0 1.434-1.218 2.58-2.65 2.58a2.568 2.568 0 01-2.58-2.58 2.568 2.568 0 012.58-2.578m2.405 9.224v39.175h-4.74V17.218z" fill="#58585B"/><path fill="#7B807F" d="M299.06 15.945v18.09h-2.252V16.37zm-11.67 11.08l-3.167-7.45-3.166 7.45h6.333zm-4.13-10.656l1.808-.414 7.781 18.097h-2.473l-2.171-5.067h-7.963l-2.171 5.067h-2.353l7.541-17.683zM146.57 55.5V15.69h21.166v2.056h-18.91v15.792h15.592v2.057h-15.592v17.848h18.91V55.5zm39.743-27.47c-6.569 0-11.943 4.977-11.943 13.138 0 8.228 5.374 13.137 11.943 13.137 6.635 0 12.076-4.91 12.076-13.137 0-8.161-5.44-13.137-12.076-13.137zm12.141 27.47l-.065-7.299c-1.992 5.242-7.1 8.095-12.275 8.095-7.83 0-13.933-6.17-13.933-15.128 0-8.957 6.103-15.128 13.933-15.128 5.175 0 10.152 2.853 12.142 7.763V15.69h2.19V55.5h-1.992zm23.156-27.47c-6.569 0-11.943 4.91-11.943 13.138 0 8.161 5.374 13.137 11.943 13.137 6.635 0 12.076-4.976 12.076-13.137 0-8.228-5.44-13.137-12.076-13.137m-.531 41.004c-3.981 0-8.824-1.526-11.08-2.92v-2.19c2.654 1.593 7.165 3.053 11.279 3.053 5.507 0 12.275-2.654 12.275-13.734v-4.71c-1.99 4.909-6.967 7.762-12.142 7.762-7.83 0-13.934-6.17-13.934-15.128 0-8.957 6.104-15.128 13.934-15.128 5.175 0 10.283 2.853 12.275 8.095l.065-7.298h1.991v26.407c0 13.071-8.228 15.79-14.663 15.79m34.899-41.202c-4.645 0-9.422 2.852-10.75 9.687h19.84s.067-.929.067-1.328c0-4.578-3.717-8.36-9.157-8.36m11.28 8.891c0 .597-.067 1.792-.2 2.522H245.03c-.597 7.896 3.119 15.061 12.872 15.061 3.45 0 7.033-1.592 9.156-3.317v1.99c-2.321 1.924-5.905 3.252-10.35 3.252-8.161 0-13.933-6.171-13.933-15.327 0-9.554 6.767-14.93 13.004-14.93 6.303 0 11.479 4.446 11.479 10.75"/></g></svg>