<svg xmlns="http://www.w3.org/2000/svg" viewBox="0 0 225 42"><defs><mask id="a" x="198.292" y="11.155" width="25.845" height="30.099" maskUnits="userSpaceOnUse"><path fill="#fff" fill-rule="evenodd" d="M198.292 11.155h25.845v30.099h-25.845V11.155z"></path></mask></defs><path d="M3.164 34.182v-12.23H0v-2.153h3.164v-5.115l2.54-.524v5.64h5.23v2.151h-5.23v12.806c0 2.388.575 3.966 2.4 3.966a5.714 5.714 0 003.258-.957l.483 1.436a5.644 5.644 0 01-4.316 1.719c-3.356 0-4.365-2.153-4.365-6.739M19.227 11.055v12.473a10.579 10.579 0 018.198-4.303c5.517 0 7.485 3.823 7.485 8.461v12.756h-2.544V27.827c0-4.54-2.205-6.214-5.226-6.214-3.262 0-7.913 2.822-7.913 6.451v12.378h-2.544V11.533zM41.28 19.991l2.11-.428.285 4.202a10.305 10.305 0 017.964-4.54v2.964c-3.79-.576-7.82 2.293-7.82 5.926v12.327H41.28zM56.949 19.99v20.452h2.543V19.517l-2.543.473zM81.571 19.799l-7.099 17.156-7.141-17.156h-2.686l8.724 20.644h1.967l8.731-20.644h-2.496zM96.04 19.177c4.84 0 8.487 3.251 8.487 7.887a17.55 17.55 0 01-.192 2.103H88.944c-.384 4.631 1.963 9.555 8.725 9.555a11.578 11.578 0 006.185-2.153l.865 1.579a12.502 12.502 0 01-8.296 2.82c-5.754 0-10.023-4.68-10.023-11.04 0-6.638 4.841-10.75 9.64-10.75m.143 2.152a6.96 6.96 0 00-7.047 5.875h12.897c.433-3.294-2.062-5.875-5.85-5.875M58.213 14.315a1.394 1.394 0 110 2.787 1.393 1.393 0 110-2.787M111.786 20.66c0-12.806 9.41-20.66 20.56-20.66 4.898 0 10.183 1.65 13.406 4.158v5.48a19.05 19.05 0 00-13.407-5.216c-8.894 0-15.21 6.337-15.21 16.237 0 9.838 6.316 16.24 15.21 16.24a19.054 19.054 0 0013.407-5.215v5.478c-3.223 2.508-8.508 4.16-13.407 4.16-11.15 0-20.559-7.857-20.559-20.663M168.187 32.938v-6.6c-8.056.724-13.406 3.431-13.406 7.19 0 3.304 2.193 3.898 4.255 3.898 1.61 0 5.479-1.123 9.15-4.488m-18.11 1.187c0-6.731 8.508-10.429 18.11-11.287v-1.583c0-3.962-1.416-6.14-5.607-6.14-2.963 0-7.67 1.783-10.57 3.764v-4.425c2.322-1.319 7.607-3.3 11.087-3.3 5.993 0 9.99 2.244 9.99 10.1v14.389c0 1.651.58 2.378 1.74 2.378a3.15 3.15 0 001.677-.463v2.178a4.795 4.795 0 01-3.352 1.253c-2.835 0-4.448-1.452-4.964-4.686-3.802 3.563-7.798 4.952-11.085 4.952a6.76 6.76 0 01-7.025-7.13M181.537 12.276l4.254-.923.324 6.072a12.465 12.465 0 0110.826-6.27v5.412c-5.285-.99-10.505 2.113-10.505 6.932v16.963h-4.899z" fill="#4a4a4a" fill-rule="evenodd"></path><path d="M218.916 21.979c.58-3.827-2.384-6.865-6.961-6.865-3.93 0-7.54 2.179-8.378 6.865zm-20.624 4.027c0-9.173 6.639-14.85 13.47-14.85 6.96 0 11.86 4.62 11.86 11.088a18.397 18.397 0 01-.387 3.234h-20.11c-.387 5.019 1.806 11.683 10.827 11.683a14.351 14.351 0 008.38-3.036l1.805 2.774c-2.384 2.508-6.574 4.355-11.859 4.355-8.185 0-13.986-6.402-13.986-15.248z" fill="#4a4a4a" fill-rule="evenodd"></path></svg>