<svg xmlns="http://www.w3.org/2000/svg" viewBox="0 0 143 40"><defs><mask id="a" x="117.567" y="10.688" width="24.828" height="28.676" maskUnits="userSpaceOnUse"><path d="M117.567 10.688h24.827v28.676h-24.827z" fill="#fff" fill-rule="evenodd"></path></mask></defs><path d="M4.764 30.434V14.338H.476v-2.83h4.288V4.774l3.441-.689v7.421h7.09v2.831h-7.09V31.19c0 3.143.78 5.219 3.255 5.219a7.91 7.91 0 004.414-1.26l.654 1.89a7.765 7.765 0 01-5.848 2.26c-4.549 0-5.916-2.83-5.916-8.865M26.533 0v16.413a14.461 14.461 0 0111.11-5.663c7.477 0 10.144 5.033 10.144 11.134V38.67h-3.448V22.071c0-5.976-2.988-8.177-7.082-8.177-4.422 0-10.724 3.713-10.724 8.488v16.287h-3.447V.63zm29.886 11.759l2.861-.564.387 5.53a14.05 14.05 0 0110.79-5.974v3.9c-5.135-.756-10.596 3.017-10.596 7.798v16.22h-3.442v-26.91zm21.234-.001v26.911h3.448V11.135zm33.371-.251l-9.623 22.575-9.677-22.575h-3.64l11.824 27.164h2.667l11.83-27.164z" fill="#fff" fill-rule="evenodd"></path><path d="M130.631 10.688c6.562 0 11.503 4.278 11.503 10.38a22.349 22.349 0 01-.26 2.764h-20.86c-.52 6.095 2.66 12.574 11.825 12.574a15.99 15.99 0 008.382-2.832l1.174 2.076c-2.407 2.142-6.502 3.714-11.244 3.714-7.796 0-13.584-6.16-13.584-14.53 0-8.734 6.561-14.146 13.064-14.146m.193 2.832a9.37 9.37 0 00-9.55 7.733h17.479c.587-4.337-2.794-7.733-7.929-7.733" fill="#fff" fill-rule="evenodd"></path><path d="M79.369 4.29a1.904 1.904 0 011.947 1.831 1.904 1.904 0 01-1.947 1.837 1.834 1.834 0 110-3.667" fill="#fff" fill-rule="evenodd"></path></svg>